<svg version="1.0" xmlns="http://www.w3.org/2000/svg"
 width="200.000000pt" height="50.000000pt" viewBox="0 0 200.000000 50.000000"
 preserveAspectRatio="xMidYMid meet">

<g transform="translate(0.000000,50.000000) scale(0.100000,-0.100000)"
fill="#000000" stroke="none">
<path d="M150 420 c-44 -10 -80 -52 -80 -92 0 -36 38 -75 99 -103 53 -23 65
-59 30 -88 -26 -21 -71 -17 -99 8 -15 14 -18 13 -28 -10 -16 -35 -17 -33 26
-44 89 -25 164 0 180 61 16 64 -5 94 -107 150 -22 12 -31 24 -31 42 0 37 42
46 100 22 9 -4 20 2 28 14 11 18 10 21 -10 29 -43 15 -73 18 -108 11z"/>
<path d="M1256 420 c-66 -20 -108 -86 -108 -171 0 -65 20 -109 62 -141 46 -34
141 -36 185 -4 17 12 17 15 3 35 -13 18 -17 19 -27 7 -17 -21 -63 -29 -95 -16
-31 12 -65 78 -66 128 0 43 23 98 48 111 29 15 74 14 99 -4 18 -13 22 -12 38
5 23 25 14 35 -39 49 -51 13 -60 13 -100 1z"/>
<path d="M327 253 l2 -168 30 -3 31 -3 0 70 0 71 35 0 c39 0 84 19 105 45 23
28 16 94 -14 123 -24 24 -35 27 -109 30 l-82 4 2 -169z m140 106 c37 -31 0
-99 -54 -99 -21 0 -23 4 -23 61 l0 62 32 -7 c17 -3 37 -11 45 -17z"/>
<path d="M584 404 c3 -9 6 -84 6 -167 l0 -152 100 0 c97 0 100 1 100 23 0 21
-4 22 -70 22 l-70 0 0 54 0 55 55 -6 c54 -6 55 -5 55 21 0 25 -2 26 -55 26
l-55 0 0 49 0 48 70 -5 70 -5 0 27 0 26 -106 0 c-93 0 -105 -2 -100 -16z"/>
<path d="M834 404 c3 -9 6 -85 6 -170 l0 -154 26 0 25 0 -3 130 c-3 123 1 152
17 113 3 -10 39 -68 78 -130 62 -97 76 -112 100 -112 l27 -1 0 170 0 170 -28
0 -27 0 3 -117 c2 -97 0 -115 -10 -100 -7 10 -42 63 -76 118 -63 98 -64 99
-104 99 -32 0 -39 -3 -34 -16z"/>
<path d="M1448 253 l3 -168 101 0 c97 1 101 2 103 23 2 21 -2 22 -72 22 l-73
0 0 55 0 55 55 -6 c54 -7 55 -6 55 20 0 25 -2 26 -55 26 l-55 0 0 48 0 48 72
0 c67 -1 71 0 73 22 2 22 -1 22 -104 22 l-106 0 3 -167z"/>
<path d="M1698 249 l3 -170 31 3 31 3 -2 78 c-3 102 12 101 75 -3 44 -74 50
-80 81 -80 18 0 33 2 33 5 0 3 -22 39 -50 81 -27 41 -50 77 -50 80 0 2 6 4 14
4 22 0 56 49 56 82 0 66 -39 88 -154 88 l-71 0 3 -171z m150 103 c27 -35 0
-72 -54 -72 -33 0 -34 1 -34 43 0 24 2 46 5 49 10 10 70 -5 83 -20z"/>
</g>
</svg>
